<svg xmlns="http://www.w3.org/2000/svg" version="1.1" xmlns:xlink="http://www.w3.org/1999/xlink" xmlns:svgjs="http://svgjs.dev/svgjs" width="2000" height="363" viewBox="0 0 2000 363"><g transform="matrix(1,0,0,1,-1.2121212121212466,0.9888878943800137)"><svg viewBox="0 0 396 72" data-background-color="#636365" preserveAspectRatio="xMidYMid meet" height="363" width="2000" xmlns="http://www.w3.org/2000/svg" xmlns:xlink="http://www.w3.org/1999/xlink"><g id="tight-bounds" transform="matrix(1,0,0,1,0.2400000000000091,-0.19614305343074534)"><svg viewBox="0 0 395.52 72.39228610686149" height="72.39228610686149" width="395.52"><g><svg viewBox="0 0 516.6262411140566 94.55844118386224" height="72.39228610686149" width="395.52"><g><rect width="4.2511391588693535" height="68.76355527480574" x="105.72646541364446" y="12.897442954528252" fill="#ffffff" opacity="1" stroke-width="0" stroke="transparent" fill-opacity="1" class="rect-qz-0" data-fill-palette-color="primary" rx="1%" id="qz-0" data-palette-color="#ffffff"></rect></g><g transform="matrix(1,0,0,1,121.10624111405662,13.068496574614826)"><svg viewBox="0 0 395.52 68.42144803463259" height="68.42144803463259" width="395.52"><g id="textblocktransform"><svg viewBox="0 0 395.52 68.42144803463259" height="68.42144803463259" width="395.52" id="textblock"><g><svg viewBox="0 0 395.52 47.14005888587916" height="47.14005888587916" width="395.52"><g transform="matrix(1,0,0,1,0,0)"><svg width="395.52" viewBox="3.75 -37 421.11 50.6" height="47.14005888587916" data-palette-color="#ffffff"><g class="wordmark-text-0" data-fill-palette-color="primary" id="text-0"><path d="M9.45-34.75L9.45-4.6 21.2-4.6 21.2 0 3.75 0 3.75-34.75 9.45-34.75ZM24.05-13.9Q24.05-18.05 25.77-21.25 27.5-24.45 30.47-26.23 33.45-28 37.05-28L37.05-28Q40.3-28 42.72-26.73 45.15-25.45 46.6-23.55L46.6-23.55 46.6-27.55 52.35-27.55 52.35 0 46.6 0 46.6-4.1Q45.15-2.15 42.65-0.85 40.15 0.45 36.95 0.45L36.95 0.45Q33.4 0.45 30.45-1.38 27.5-3.2 25.77-6.48 24.05-9.75 24.05-13.9L24.05-13.9ZM46.6-13.8Q46.6-16.65 45.42-18.75 44.25-20.85 42.35-21.95 40.45-23.05 38.25-23.05L38.25-23.05Q36.05-23.05 34.15-21.98 32.25-20.9 31.07-18.82 29.9-16.75 29.9-13.9L29.9-13.9Q29.9-11.05 31.07-8.9 32.25-6.75 34.17-5.63 36.1-4.5 38.25-4.5L38.25-4.5Q40.45-4.5 42.35-5.6 44.25-6.7 45.42-8.83 46.6-10.95 46.6-13.8L46.6-13.8ZM65.55-23.45Q67-25.45 69.52-26.73 72.05-28 75.14-28L75.14-28Q78.8-28 81.75-26.25 84.69-24.5 86.39-21.28 88.09-18.05 88.09-13.9L88.09-13.9Q88.09-9.75 86.39-6.48 84.69-3.2 81.72-1.38 78.75 0.45 75.14 0.45L75.14 0.45Q71.94 0.45 69.47-0.8 67-2.05 65.55-4L65.55-4 65.55 0 59.84 0 59.84-37 65.55-37 65.55-23.45ZM82.3-13.9Q82.3-16.75 81.12-18.82 79.94-20.9 78.02-21.98 76.09-23.05 73.89-23.05L73.89-23.05Q71.75-23.05 69.82-21.95 67.89-20.85 66.72-18.75 65.55-16.65 65.55-13.8L65.55-13.8Q65.55-10.95 66.72-8.83 67.89-6.7 69.82-5.6 71.75-4.5 73.89-4.5L73.89-4.5Q76.09-4.5 78.02-5.63 79.94-6.75 81.12-8.9 82.3-11.05 82.3-13.9L82.3-13.9Z" fill="#ffffff" data-fill-palette-color="primary"></path><path d="M133.39-34.8L133.39 0 127.69 0 110.54-25.95 110.54 0 104.84 0 104.84-34.8 110.54-34.8 127.69-8.9 127.69-34.8 133.39-34.8ZM166.14-14.45Q166.14-12.9 165.94-11.65L165.94-11.65 144.89-11.65Q145.14-8.35 147.34-6.35 149.54-4.35 152.74-4.35L152.74-4.35Q157.34-4.35 159.24-8.2L159.24-8.2 165.39-8.2Q164.14-4.4 160.86-1.98 157.59 0.45 152.74 0.45L152.74 0.45Q148.79 0.45 145.66-1.33 142.54-3.1 140.76-6.33 138.99-9.55 138.99-13.8L138.99-13.8Q138.99-18.05 140.71-21.28 142.44-24.5 145.56-26.25 148.69-28 152.74-28L152.74-28Q156.64-28 159.69-26.3 162.74-24.6 164.44-21.53 166.14-18.45 166.14-14.45L166.14-14.45ZM144.94-16.25L160.19-16.25Q160.14-19.4 157.94-21.3 155.74-23.2 152.49-23.2L152.49-23.2Q149.54-23.2 147.44-21.33 145.34-19.45 144.94-16.25L144.94-16.25ZM185.08-22.9L178.38-22.9 178.38-7.65Q178.38-6.1 179.11-5.43 179.83-4.75 181.58-4.75L181.58-4.75 185.08-4.75 185.08 0 180.58 0Q176.73 0 174.68-1.8 172.63-3.6 172.63-7.65L172.63-7.65 172.63-22.9 169.38-22.9 169.38-27.55 172.63-27.55 172.63-34.4 178.38-34.4 178.38-27.55 185.08-27.55 185.08-22.9Z" fill="#ffffff" data-fill-palette-color="primary"></path><path d="M232.33-34.75L238.43-34.75 238.43 0 232.73 0 232.73-23.8 222.13 0 218.18 0 207.53-23.8 207.53 0 201.83 0 201.83-34.75 207.98-34.75 220.18-7.5 232.33-34.75ZM244.03-13.9Q244.03-18.05 245.75-21.25 247.48-24.45 250.45-26.23 253.42-28 257.03-28L257.03-28Q260.28-28 262.7-26.73 265.13-25.45 266.58-23.55L266.58-23.55 266.58-27.55 272.33-27.55 272.33 0 266.58 0 266.58-4.1Q265.13-2.15 262.63-0.85 260.13 0.45 256.92 0.45L256.92 0.45Q253.38 0.45 250.42-1.38 247.48-3.2 245.75-6.48 244.03-9.75 244.03-13.9L244.03-13.9ZM266.58-13.8Q266.58-16.65 265.4-18.75 264.23-20.85 262.33-21.95 260.42-23.05 258.23-23.05L258.23-23.05Q256.03-23.05 254.13-21.98 252.23-20.9 251.05-18.82 249.88-16.75 249.88-13.9L249.88-13.9Q249.88-11.05 251.05-8.9 252.23-6.75 254.15-5.63 256.08-4.5 258.23-4.5L258.23-4.5Q260.42-4.5 262.33-5.6 264.23-6.7 265.4-8.83 266.58-10.95 266.58-13.8L266.58-13.8ZM293.72-28Q296.97-28 299.55-26.65 302.12-25.3 303.57-22.65 305.02-20 305.02-16.25L305.02-16.25 305.02 0 299.37 0 299.37-15.4Q299.37-19.1 297.52-21.08 295.67-23.05 292.47-23.05L292.47-23.05Q289.27-23.05 287.4-21.08 285.52-19.1 285.52-15.4L285.52-15.4 285.52 0 279.82 0 279.82-27.55 285.52-27.55 285.52-24.4Q286.92-26.1 289.1-27.05 291.27-28 293.72-28L293.72-28ZM310.37-13.9Q310.37-18.05 312.1-21.25 313.82-24.45 316.8-26.23 319.77-28 323.37-28L323.37-28Q326.62-28 329.05-26.73 331.47-25.45 332.92-23.55L332.92-23.55 332.92-27.55 338.67-27.55 338.67 0 332.92 0 332.92-4.1Q331.47-2.15 328.97-0.85 326.47 0.45 323.27 0.45L323.27 0.45Q319.72 0.45 316.77-1.38 313.82-3.2 312.1-6.48 310.37-9.75 310.37-13.9L310.37-13.9ZM332.92-13.8Q332.92-16.65 331.75-18.75 330.57-20.85 328.67-21.95 326.77-23.05 324.57-23.05L324.57-23.05Q322.37-23.05 320.47-21.98 318.57-20.9 317.39-18.82 316.22-16.75 316.22-13.9L316.22-13.9Q316.22-11.05 317.39-8.9 318.57-6.75 320.5-5.63 322.42-4.5 324.57-4.5L324.57-4.5Q326.77-4.5 328.67-5.6 330.57-6.7 331.75-8.83 332.92-10.95 332.92-13.8L332.92-13.8ZM357.27-28Q360.47-28 362.94-26.73 365.42-25.45 366.82-23.55L366.82-23.55 366.82-27.55 372.57-27.55 372.57 0.45Q372.57 4.25 370.97 7.23 369.37 10.2 366.34 11.9 363.32 13.6 359.12 13.6L359.12 13.6Q353.52 13.6 349.82 10.98 346.12 8.35 345.62 3.85L345.62 3.85 351.27 3.85Q351.92 6 354.04 7.33 356.17 8.65 359.12 8.65L359.12 8.65Q362.57 8.65 364.69 6.55 366.82 4.45 366.82 0.45L366.82 0.45 366.82-4.15Q365.37-2.2 362.89-0.88 360.42 0.45 357.27 0.45L357.27 0.45Q353.67 0.45 350.69-1.38 347.72-3.2 345.99-6.48 344.27-9.75 344.27-13.9L344.27-13.9Q344.27-18.05 345.99-21.25 347.72-24.45 350.69-26.23 353.67-28 357.27-28L357.27-28ZM366.82-13.8Q366.82-16.65 365.64-18.75 364.47-20.85 362.57-21.95 360.67-23.05 358.47-23.05L358.47-23.05Q356.27-23.05 354.37-21.98 352.47-20.9 351.29-18.82 350.12-16.75 350.12-13.9L350.12-13.9Q350.12-11.05 351.29-8.9 352.47-6.75 354.39-5.63 356.32-4.5 358.47-4.5L358.47-4.5Q360.67-4.5 362.57-5.6 364.47-6.7 365.64-8.83 366.82-10.95 366.82-13.8L366.82-13.8ZM405.32-14.45Q405.32-12.9 405.12-11.65L405.12-11.65 384.07-11.65Q384.32-8.35 386.52-6.35 388.72-4.35 391.92-4.35L391.92-4.35Q396.52-4.35 398.42-8.2L398.42-8.2 404.57-8.2Q403.32-4.4 400.04-1.98 396.77 0.45 391.92 0.45L391.92 0.45Q387.97 0.45 384.84-1.33 381.72-3.1 379.94-6.33 378.17-9.55 378.17-13.8L378.17-13.8Q378.17-18.05 379.89-21.28 381.62-24.5 384.74-26.25 387.87-28 391.92-28L391.92-28Q395.82-28 398.87-26.3 401.92-24.6 403.62-21.53 405.32-18.45 405.32-14.45L405.32-14.45ZM384.12-16.25L399.37-16.25Q399.32-19.4 397.12-21.3 394.92-23.2 391.67-23.2L391.67-23.2Q388.72-23.2 386.62-21.33 384.52-19.45 384.12-16.25L384.12-16.25ZM416.61-23.55Q417.86-25.65 419.94-26.83 422.01-28 424.86-28L424.86-28 424.86-22.1 423.41-22.1Q420.06-22.1 418.34-20.4 416.61-18.7 416.61-14.5L416.61-14.5 416.61 0 410.91 0 410.91-27.55 416.61-27.55 416.61-23.55Z" fill="#ffffff" data-fill-palette-color="primary"></path></g></svg></g></svg></g><g transform="matrix(1,0,0,1,0,58.26869542742197)"><svg viewBox="0 0 232.209792 10.152752607210626" height="10.152752607210626" width="232.209792"><g transform="matrix(1,0,0,1,0,0)"><svg width="232.209792" viewBox="1.5 -41.45 1264.68 55.300000000000004" height="10.152752607210626" data-palette-color="#ffffff"><path d="M19.75 0.35Q14.75 0.35 10.58-2 6.4-4.35 3.95-8.5 1.5-12.65 1.5-17.85L1.5-17.85Q1.5-23.05 3.95-27.2 6.4-31.35 10.58-33.68 14.75-36 19.75-36L19.75-36Q24.75-36 28.9-33.68 33.05-31.35 35.48-27.2 37.9-23.05 37.9-17.85L37.9-17.85Q37.9-12.65 35.48-8.5 33.05-4.35 28.88-2 24.7 0.35 19.75 0.35L19.75 0.35ZM19.75-10Q23.05-10 24.85-12.13 26.65-14.25 26.65-17.85L26.65-17.85Q26.65-21.5 24.85-23.63 23.05-25.75 19.75-25.75L19.75-25.75Q16.4-25.75 14.6-23.63 12.8-21.5 12.8-17.85L12.8-17.85Q12.8-14.25 14.6-12.13 16.4-10 19.75-10L19.75-10ZM53-24.35Q54.05-26.3 56.02-27.43 58-28.55 60.75-28.55L60.75-28.55Q64.05-28.55 66.7-26.83 69.35-25.1 70.87-21.83 72.4-18.55 72.4-14.1L72.4-14.1Q72.4-9.65 70.87-6.38 69.35-3.1 66.7-1.38 64.05 0.35 60.75 0.35L60.75 0.35Q58 0.35 56.02-0.78 54.05-1.9 53-3.85L53-3.85 53 13.5 41.9 13.5 41.9-28.2 53-28.2 53-24.35ZM61.15-14.1Q61.15-16.35 60-17.6 58.85-18.85 57.05-18.85L57.05-18.85Q55.25-18.85 54.1-17.6 52.95-16.35 52.95-14.1L52.95-14.1Q52.95-11.85 54.1-10.6 55.25-9.35 57.05-9.35L57.05-9.35Q58.85-9.35 60-10.6 61.15-11.85 61.15-14.1L61.15-14.1ZM90.8-9.45L93.45-9.45 93.45 0 89.25 0Q77.65 0 77.65-11.55L77.65-11.55 77.65-18.95 74.15-18.95 74.15-28.2 77.65-28.2 77.65-35 88.75-35 88.75-28.2 93.35-28.2 93.35-18.95 88.75-18.95 88.75-11.35Q88.75-10.35 89.22-9.9 89.7-9.45 90.8-9.45L90.8-9.45ZM103.29-30.45Q100.39-30.45 98.64-32 96.89-33.55 96.89-35.9L96.89-35.9Q96.89-38.3 98.64-39.88 100.39-41.45 103.29-41.45L103.29-41.45Q106.14-41.45 107.89-39.88 109.64-38.3 109.64-35.9L109.64-35.9Q109.64-33.55 107.89-32 106.14-30.45 103.29-30.45L103.29-30.45ZM97.69-28.2L108.79-28.2 108.79 0 97.69 0 97.69-28.2ZM151.44-28.4Q156.84-28.4 159.82-25.15 162.79-21.9 162.79-16.35L162.79-16.35 162.79 0 151.74 0 151.74-14.95Q151.74-16.75 150.67-17.78 149.59-18.8 147.79-18.8L147.79-18.8Q145.94-18.8 144.89-17.78 143.84-16.75 143.84-14.95L143.84-14.95 143.84 0 132.79 0 132.79-14.95Q132.79-16.75 131.72-17.78 130.64-18.8 128.84-18.8L128.84-18.8Q126.99-18.8 125.94-17.78 124.89-16.75 124.89-14.95L124.89-14.95 124.89 0 113.79 0 113.79-28.2 124.89-28.2 124.89-24.4Q126.09-26.2 128.17-27.3 130.24-28.4 133.04-28.4L133.04-28.4Q136.09-28.4 138.44-27.08 140.79-25.75 142.19-23.35L142.19-23.35Q143.74-25.55 146.14-26.98 148.54-28.4 151.44-28.4L151.44-28.4ZM173.19-30.45Q170.29-30.45 168.54-32 166.79-33.55 166.79-35.9L166.79-35.9Q166.79-38.3 168.54-39.88 170.29-41.45 173.19-41.45L173.19-41.45Q176.04-41.45 177.79-39.88 179.54-38.3 179.54-35.9L179.54-35.9Q179.54-33.55 177.79-32 176.04-30.45 173.19-30.45L173.19-30.45ZM167.59-28.2L178.69-28.2 178.69 0 167.59 0 167.59-28.2ZM205.59-19.5L194.34-9.2 206.09-9.2 206.09 0 182.19 0 182.19-8.7 192.94-19 182.34-19 182.34-28.2 205.59-28.2 205.59-19.5ZM215.18-30.45Q212.28-30.45 210.53-32 208.78-33.55 208.78-35.9L208.78-35.9Q208.78-38.3 210.53-39.88 212.28-41.45 215.18-41.45L215.18-41.45Q218.03-41.45 219.78-39.88 221.53-38.3 221.53-35.9L221.53-35.9Q221.53-33.55 219.78-32 218.03-30.45 215.18-30.45L215.18-30.45ZM209.58-28.2L220.68-28.2 220.68 0 209.58 0 209.58-28.2ZM245.43-28.4Q250.28-28.4 253.01-25.15 255.73-21.9 255.73-16.35L255.73-16.35 255.73 0 244.68 0 244.68-14.95Q244.68-16.95 243.61-18.13 242.53-19.3 240.73-19.3L240.73-19.3Q238.88-19.3 237.83-18.13 236.78-16.95 236.78-14.95L236.78-14.95 236.78 0 225.68 0 225.68-28.2 236.78-28.2 236.78-23.9Q238.08-25.9 240.26-27.15 242.43-28.4 245.43-28.4L245.43-28.4ZM270.68-28.55Q273.43-28.55 275.43-27.43 277.43-26.3 278.48-24.35L278.48-24.35 278.48-28.2 289.53-28.2 289.53-0.5Q289.53 3.45 288.08 6.7 286.63 9.95 283.4 11.9 280.18 13.85 275.13 13.85L275.13 13.85Q268.33 13.85 264.35 10.68 260.38 7.5 259.83 2.05L259.83 2.05 270.73 2.05Q271.18 4.25 274.33 4.25L274.33 4.25Q276.28 4.25 277.38 3.25 278.48 2.25 278.48-0.5L278.48-0.5 278.48-3.85Q277.43-1.9 275.43-0.78 273.43 0.35 270.68 0.35L270.68 0.35Q267.38 0.35 264.73-1.38 262.08-3.1 260.55-6.38 259.03-9.65 259.03-14.1L259.03-14.1Q259.03-18.55 260.55-21.83 262.08-25.1 264.73-26.83 267.38-28.55 270.68-28.55L270.68-28.55ZM278.48-14.1Q278.48-16.35 277.33-17.6 276.18-18.85 274.38-18.85L274.38-18.85Q272.58-18.85 271.43-17.6 270.28-16.35 270.28-14.1L270.28-14.1Q270.28-11.85 271.43-10.6 272.58-9.35 274.38-9.35L274.38-9.35Q276.18-9.35 277.33-10.6 278.48-11.85 278.48-14.1L278.48-14.1ZM314.12-35.4L314.12-8.4 324.82-8.4 324.82 0 303.02 0 303.02-35.4 314.12-35.4ZM326.82-14.1Q326.82-18.55 328.35-21.83 329.87-25.1 332.52-26.83 335.17-28.55 338.47-28.55L338.47-28.55Q341.22-28.55 343.22-27.43 345.22-26.3 346.27-24.35L346.27-24.35 346.27-28.2 357.32-28.2 357.32 0 346.27 0 346.27-3.85Q345.22-1.9 343.22-0.78 341.22 0.35 338.47 0.35L338.47 0.35Q335.17 0.35 332.52-1.38 329.87-3.1 328.35-6.38 326.82-9.65 326.82-14.1L326.82-14.1ZM346.27-14.1Q346.27-16.35 345.12-17.6 343.97-18.85 342.17-18.85L342.17-18.85Q340.37-18.85 339.22-17.6 338.07-16.35 338.07-14.1L338.07-14.1Q338.07-11.85 339.22-10.6 340.37-9.35 342.17-9.35L342.17-9.35Q343.97-9.35 345.12-10.6 346.27-11.85 346.27-14.1L346.27-14.1ZM373.42-24.35Q374.47-26.3 376.44-27.43 378.42-28.55 381.17-28.55L381.17-28.55Q384.47-28.55 387.12-26.83 389.77-25.1 391.29-21.83 392.82-18.55 392.82-14.1L392.82-14.1Q392.82-9.65 391.29-6.38 389.77-3.1 387.12-1.38 384.47 0.35 381.17 0.35L381.17 0.35Q378.42 0.35 376.44-0.78 374.47-1.9 373.42-3.85L373.42-3.85 373.42 0 362.32 0 362.32-37 373.42-37 373.42-24.35ZM381.57-14.1Q381.57-16.35 380.42-17.6 379.27-18.85 377.47-18.85L377.47-18.85Q375.67-18.85 374.52-17.6 373.37-16.35 373.37-14.1L373.37-14.1Q373.37-11.85 374.52-10.6 375.67-9.35 377.47-9.35L377.47-9.35Q379.27-9.35 380.42-10.6 381.57-11.85 381.57-14.1L381.57-14.1ZM433.76-23.25Q433.76-19.9 432.21-17.18 430.66-14.45 427.64-12.85 424.61-11.25 420.31-11.25L420.31-11.25 415.91-11.25 415.91 0 404.81 0 404.81-35.4 420.31-35.4Q426.81-35.4 430.29-32.1 433.76-28.8 433.76-23.25L433.76-23.25ZM419.06-20Q422.51-20 422.51-23.25L422.51-23.25Q422.51-26.5 419.06-26.5L419.06-26.5 415.91-26.5 415.91-20 419.06-20ZM464.56-14.35Q464.56-13.2 464.41-12.15L464.41-12.15 446.56-12.15Q446.81-8.5 449.61-8.5L449.61-8.5Q451.41-8.5 452.21-10.15L452.21-10.15 463.96-10.15Q463.36-7.15 461.44-4.78 459.51-2.4 456.59-1.03 453.66 0.35 450.16 0.35L450.16 0.35Q445.96 0.35 442.69-1.4 439.41-3.15 437.59-6.43 435.76-9.7 435.76-14.1L435.76-14.1Q435.76-18.5 437.59-21.78 439.41-25.05 442.69-26.8 445.96-28.55 450.16-28.55L450.16-28.55Q454.36-28.55 457.64-26.83 460.91-25.1 462.74-21.9 464.56-18.7 464.56-14.35L464.56-14.35ZM446.71-17L453.31-17Q453.31-18.4 452.41-19.13 451.51-19.85 450.16-19.85L450.16-19.85Q447.21-19.85 446.71-17L446.71-17ZM479.16-23Q480.86-25.45 483.31-26.93 485.76-28.4 488.41-28.4L488.41-28.4 488.41-16.55 485.26-16.55Q482.11-16.55 480.63-15.45 479.16-14.35 479.16-11.55L479.16-11.55 479.16 0 468.06 0 468.06-28.2 479.16-28.2 479.16-23ZM507.66-30.2Q506.76-30.3 506.41-30.3L506.41-30.3Q505.16-30.3 504.51-29.83 503.86-29.35 503.61-28.2L503.61-28.2 507.66-28.2 507.66-18.95 503.51-18.95 503.51 0 492.41 0 492.41-18.95 489.41-18.95 489.41-28.2 492.41-28.2Q492.51-33.7 495.88-36.73 499.26-39.75 505.36-39.75L505.36-39.75Q506.06-39.75 507.66-39.65L507.66-39.65 507.66-30.2ZM524.05 0.35Q519.8 0.35 516.4-1.4 513-3.15 511.08-6.43 509.15-9.7 509.15-14.1L509.15-14.1Q509.15-18.5 511.08-21.78 513-25.05 516.4-26.8 519.8-28.55 524.05-28.55L524.05-28.55Q528.3-28.55 531.7-26.8 535.1-25.05 537.03-21.78 538.95-18.5 538.95-14.1L538.95-14.1Q538.95-9.7 537.03-6.43 535.1-3.15 531.7-1.4 528.3 0.35 524.05 0.35L524.05 0.35ZM524.05-9.25Q525.6-9.25 526.65-10.48 527.7-11.7 527.7-14.1L527.7-14.1Q527.7-16.5 526.65-17.73 525.6-18.95 524.05-18.95L524.05-18.95Q522.5-18.95 521.45-17.73 520.4-16.5 520.4-14.1L520.4-14.1Q520.4-11.7 521.43-10.48 522.45-9.25 524.05-9.25L524.05-9.25ZM553.55-23Q555.25-25.45 557.7-26.93 560.15-28.4 562.8-28.4L562.8-28.4 562.8-16.55 559.65-16.55Q556.5-16.55 555.03-15.45 553.55-14.35 553.55-11.55L553.55-11.55 553.55 0 542.45 0 542.45-28.2 553.55-28.2 553.55-23ZM603.45-28.4Q608.85-28.4 611.82-25.15 614.8-21.9 614.8-16.35L614.8-16.35 614.8 0 603.75 0 603.75-14.95Q603.75-16.75 602.67-17.78 601.6-18.8 599.8-18.8L599.8-18.8Q597.95-18.8 596.9-17.78 595.85-16.75 595.85-14.95L595.85-14.95 595.85 0 584.8 0 584.8-14.95Q584.8-16.75 583.72-17.78 582.65-18.8 580.85-18.8L580.85-18.8Q579-18.8 577.95-17.78 576.9-16.75 576.9-14.95L576.9-14.95 576.9 0 565.8 0 565.8-28.2 576.9-28.2 576.9-24.4Q578.1-26.2 580.17-27.3 582.25-28.4 585.05-28.4L585.05-28.4Q588.1-28.4 590.45-27.08 592.8-25.75 594.2-23.35L594.2-23.35Q595.75-25.55 598.15-26.98 600.55-28.4 603.45-28.4L603.45-28.4ZM618.09-14.1Q618.09-18.55 619.62-21.83 621.14-25.1 623.79-26.83 626.44-28.55 629.74-28.55L629.74-28.55Q632.49-28.55 634.49-27.43 636.49-26.3 637.54-24.35L637.54-24.35 637.54-28.2 648.59-28.2 648.59 0 637.54 0 637.54-3.85Q636.49-1.9 634.49-0.78 632.49 0.35 629.74 0.35L629.74 0.35Q626.44 0.35 623.79-1.38 621.14-3.1 619.62-6.38 618.09-9.65 618.09-14.1L618.09-14.1ZM637.54-14.1Q637.54-16.35 636.39-17.6 635.24-18.85 633.44-18.85L633.44-18.85Q631.64-18.85 630.49-17.6 629.34-16.35 629.34-14.1L629.34-14.1Q629.34-11.85 630.49-10.6 631.64-9.35 633.44-9.35L633.44-9.35Q635.24-9.35 636.39-10.6 637.54-11.85 637.54-14.1L637.54-14.1ZM673.34-28.4Q678.19-28.4 680.92-25.15 683.64-21.9 683.64-16.35L683.64-16.35 683.64 0 672.59 0 672.59-14.95Q672.59-16.95 671.52-18.13 670.44-19.3 668.64-19.3L668.64-19.3Q666.79-19.3 665.74-18.13 664.69-16.95 664.69-14.95L664.69-14.95 664.69 0 653.59 0 653.59-28.2 664.69-28.2 664.69-23.9Q665.99-25.9 668.17-27.15 670.34-28.4 673.34-28.4L673.34-28.4ZM686.94-14.1Q686.94-18.5 688.76-21.78 690.59-25.05 693.86-26.8 697.14-28.55 701.34-28.55L701.34-28.55Q706.84-28.55 710.61-25.45 714.39-22.35 715.39-16.85L715.39-16.85 703.64-16.85Q702.99-19.05 701.09-19.05L701.09-19.05Q699.74-19.05 698.96-17.8 698.19-16.55 698.19-14.1L698.19-14.1Q698.19-11.65 698.96-10.4 699.74-9.15 701.09-9.15L701.09-9.15Q702.99-9.15 703.64-11.35L703.64-11.35 715.39-11.35Q714.39-5.85 710.61-2.75 706.84 0.35 701.34 0.35L701.34 0.35Q697.14 0.35 693.86-1.4 690.59-3.15 688.76-6.43 686.94-9.7 686.94-14.1L686.94-14.1ZM746.19-14.35Q746.19-13.2 746.04-12.15L746.04-12.15 728.19-12.15Q728.44-8.5 731.24-8.5L731.24-8.5Q733.04-8.5 733.84-10.15L733.84-10.15 745.59-10.15Q744.99-7.15 743.06-4.78 741.14-2.4 738.21-1.03 735.29 0.35 731.79 0.35L731.79 0.35Q727.59 0.35 724.31-1.4 721.04-3.15 719.21-6.43 717.39-9.7 717.39-14.1L717.39-14.1Q717.39-18.5 719.21-21.78 721.04-25.05 724.31-26.8 727.59-28.55 731.79-28.55L731.79-28.55Q735.99-28.55 739.26-26.83 742.54-25.1 744.36-21.9 746.19-18.7 746.19-14.35L746.19-14.35ZM728.34-17L734.94-17Q734.94-18.4 734.04-19.13 733.14-19.85 731.79-19.85L731.79-19.85Q728.84-19.85 728.34-17L728.34-17ZM751.78-8.85L761.58-8.85 756.43 6 749.43 6 751.78-8.85ZM792.53 0.35Q787.53 0.35 783.35-2 779.18-4.35 776.73-8.5 774.28-12.65 774.28-17.85L774.28-17.85Q774.28-23.05 776.73-27.2 779.18-31.35 783.35-33.68 787.53-36 792.53-36L792.53-36Q797.53-36 801.68-33.68 805.83-31.35 808.25-27.2 810.68-23.05 810.68-17.85L810.68-17.85Q810.68-12.65 808.25-8.5 805.83-4.35 801.65-2 797.48 0.35 792.53 0.35L792.53 0.35ZM792.53-10Q795.83-10 797.63-12.13 799.43-14.25 799.43-17.85L799.43-17.85Q799.43-21.5 797.63-23.63 795.83-25.75 792.53-25.75L792.53-25.75Q789.18-25.75 787.38-23.63 785.58-21.5 785.58-17.85L785.58-17.85Q785.58-14.25 787.38-12.13 789.18-10 792.53-10L792.53-10ZM834.43-28.4Q839.28-28.4 842-25.15 844.73-21.9 844.73-16.35L844.73-16.35 844.73 0 833.68 0 833.68-14.95Q833.68-16.95 832.6-18.13 831.53-19.3 829.73-19.3L829.73-19.3Q827.88-19.3 826.83-18.13 825.78-16.95 825.78-14.95L825.78-14.95 825.78 0 814.68 0 814.68-28.2 825.78-28.2 825.78-23.9Q827.08-25.9 829.25-27.15 831.43-28.4 834.43-28.4L834.43-28.4ZM876.82-14.35Q876.82-13.2 876.67-12.15L876.67-12.15 858.82-12.15Q859.07-8.5 861.87-8.5L861.87-8.5Q863.67-8.5 864.47-10.15L864.47-10.15 876.22-10.15Q875.62-7.15 873.7-4.78 871.77-2.4 868.85-1.03 865.92 0.35 862.42 0.35L862.42 0.35Q858.22 0.35 854.95-1.4 851.67-3.15 849.85-6.43 848.02-9.7 848.02-14.1L848.02-14.1Q848.02-18.5 849.85-21.78 851.67-25.05 854.95-26.8 858.22-28.55 862.42-28.55L862.42-28.55Q866.62-28.55 869.9-26.83 873.17-25.1 875-21.9 876.82-18.7 876.82-14.35L876.82-14.35ZM858.97-17L865.57-17Q865.57-18.4 864.67-19.13 863.77-19.85 862.42-19.85L862.42-19.85Q859.47-19.85 858.97-17L858.97-17ZM887.82-17.75Q887.82-23 889.94-27.1 892.07-31.2 896.02-33.48 899.97-35.75 905.32-35.75L905.32-35.75Q909.92-35.75 913.54-34.02 917.17-32.3 919.44-29.15 921.72-26 922.47-21.8L922.47-21.8 910.77-21.8Q909.97-23.55 908.49-24.53 907.02-25.5 905.12-25.5L905.12-25.5Q902.32-25.5 900.69-23.4 899.07-21.3 899.07-17.75L899.07-17.75Q899.07-14.2 900.69-12.1 902.32-10 905.12-10L905.12-10Q907.02-10 908.49-10.98 909.97-11.95 910.77-13.7L910.77-13.7 922.47-13.7Q921.72-9.5 919.44-6.35 917.17-3.2 913.54-1.48 909.92 0.25 905.32 0.25L905.32 0.25Q899.97 0.25 896.02-2.02 892.07-4.3 889.94-8.4 887.82-12.5 887.82-17.75L887.82-17.75ZM926.47-37L937.57-37 937.57 0 926.47 0 926.47-37ZM948.16-30.45Q945.26-30.45 943.51-32 941.76-33.55 941.76-35.9L941.76-35.9Q941.76-38.3 943.51-39.88 945.26-41.45 948.16-41.45L948.16-41.45Q951.01-41.45 952.76-39.88 954.51-38.3 954.51-35.9L954.51-35.9Q954.51-33.55 952.76-32 951.01-30.45 948.16-30.45L948.16-30.45ZM942.56-28.2L953.66-28.2 953.66 0 942.56 0 942.56-28.2ZM957.16-14.1Q957.16-18.5 958.99-21.78 960.81-25.05 964.09-26.8 967.36-28.55 971.56-28.55L971.56-28.55Q977.06-28.55 980.84-25.45 984.61-22.35 985.61-16.85L985.61-16.85 973.86-16.85Q973.21-19.05 971.31-19.05L971.31-19.05Q969.96-19.05 969.19-17.8 968.41-16.55 968.41-14.1L968.41-14.1Q968.41-11.65 969.19-10.4 969.96-9.15 971.31-9.15L971.31-9.15Q973.21-9.15 973.86-11.35L973.86-11.35 985.61-11.35Q984.61-5.85 980.84-2.75 977.06 0.35 971.56 0.35L971.56 0.35Q967.36 0.35 964.09-1.4 960.81-3.15 958.99-6.43 957.16-9.7 957.16-14.1L957.16-14.1ZM1020.41 0L1007.16 0 1000.21-11.25 1000.21 0 989.11 0 989.11-37 1000.21-37 1000.21-17.65 1007.26-28.2 1020.16-28.2 1009.61-14 1020.41 0ZM1029.9-14.1Q1029.9-18.55 1031.43-21.83 1032.95-25.1 1035.6-26.83 1038.25-28.55 1041.55-28.55L1041.55-28.55Q1044.3-28.55 1046.3-27.43 1048.3-26.3 1049.35-24.35L1049.35-24.35 1049.35-28.2 1060.4-28.2 1060.4 0 1049.35 0 1049.35-3.85Q1048.3-1.9 1046.3-0.78 1044.3 0.35 1041.55 0.35L1041.55 0.35Q1038.25 0.35 1035.6-1.38 1032.95-3.1 1031.43-6.38 1029.9-9.65 1029.9-14.1L1029.9-14.1ZM1049.35-14.1Q1049.35-16.35 1048.2-17.6 1047.05-18.85 1045.25-18.85L1045.25-18.85Q1043.45-18.85 1042.3-17.6 1041.15-16.35 1041.15-14.1L1041.15-14.1Q1041.15-11.85 1042.3-10.6 1043.45-9.35 1045.25-9.35L1045.25-9.35Q1047.05-9.35 1048.2-10.6 1049.35-11.85 1049.35-14.1L1049.35-14.1ZM1080.3-9.45L1082.95-9.45 1082.95 0 1078.75 0Q1067.15 0 1067.15-11.55L1067.15-11.55 1067.15-18.95 1063.65-18.95 1063.65-28.2 1067.15-28.2 1067.15-35 1078.25-35 1078.25-28.2 1082.85-28.2 1082.85-18.95 1078.25-18.95 1078.25-11.35Q1078.25-10.35 1078.73-9.9 1079.2-9.45 1080.3-9.45L1080.3-9.45ZM1094.2-14.1Q1094.2-18.55 1095.72-21.83 1097.25-25.1 1099.9-26.83 1102.55-28.55 1105.85-28.55L1105.85-28.55Q1108.6-28.55 1110.6-27.43 1112.6-26.3 1113.65-24.35L1113.65-24.35 1113.65-28.2 1124.7-28.2 1124.7 0 1113.65 0 1113.65-3.85Q1112.6-1.9 1110.6-0.78 1108.6 0.35 1105.85 0.35L1105.85 0.35Q1102.55 0.35 1099.9-1.38 1097.25-3.1 1095.72-6.38 1094.2-9.65 1094.2-14.1L1094.2-14.1ZM1113.65-14.1Q1113.65-16.35 1112.5-17.6 1111.35-18.85 1109.55-18.85L1109.55-18.85Q1107.75-18.85 1106.6-17.6 1105.45-16.35 1105.45-14.1L1105.45-14.1Q1105.45-11.85 1106.6-10.6 1107.75-9.35 1109.55-9.35L1109.55-9.35Q1111.35-9.35 1112.5-10.6 1113.65-11.85 1113.65-14.1L1113.65-14.1ZM1136.19-35.4L1165.99-35.4 1165.99-26.6 1156.59-26.6 1156.59 0 1145.49 0 1145.49-26.6 1136.19-26.6 1136.19-35.4ZM1174.59-30.45Q1171.69-30.45 1169.94-32 1168.19-33.55 1168.19-35.9L1168.19-35.9Q1168.19-38.3 1169.94-39.88 1171.69-41.45 1174.59-41.45L1174.59-41.45Q1177.44-41.45 1179.19-39.88 1180.94-38.3 1180.94-35.9L1180.94-35.9Q1180.94-33.55 1179.19-32 1177.44-30.45 1174.59-30.45L1174.59-30.45ZM1168.99-28.2L1180.09-28.2 1180.09 0 1168.99 0 1168.99-28.2ZM1222.74-28.4Q1228.14-28.4 1231.11-25.15 1234.09-21.9 1234.09-16.35L1234.09-16.35 1234.09 0 1223.04 0 1223.04-14.95Q1223.04-16.75 1221.96-17.78 1220.89-18.8 1219.09-18.8L1219.09-18.8Q1217.24-18.8 1216.19-17.78 1215.14-16.75 1215.14-14.95L1215.14-14.95 1215.14 0 1204.09 0 1204.09-14.95Q1204.09-16.75 1203.01-17.78 1201.94-18.8 1200.14-18.8L1200.14-18.8Q1198.29-18.8 1197.24-17.78 1196.19-16.75 1196.19-14.95L1196.19-14.95 1196.19 0 1185.09 0 1185.09-28.2 1196.19-28.2 1196.19-24.4Q1197.39-26.2 1199.46-27.3 1201.54-28.4 1204.34-28.4L1204.34-28.4Q1207.39-28.4 1209.74-27.08 1212.09-25.75 1213.49-23.35L1213.49-23.35Q1215.04-25.55 1217.44-26.98 1219.84-28.4 1222.74-28.4L1222.74-28.4ZM1266.18-14.35Q1266.18-13.2 1266.03-12.15L1266.03-12.15 1248.18-12.15Q1248.43-8.5 1251.23-8.5L1251.23-8.5Q1253.03-8.5 1253.83-10.15L1253.83-10.15 1265.58-10.15Q1264.98-7.15 1263.06-4.78 1261.13-2.4 1258.21-1.03 1255.28 0.35 1251.78 0.35L1251.78 0.35Q1247.58 0.35 1244.31-1.4 1241.03-3.15 1239.21-6.43 1237.38-9.7 1237.38-14.1L1237.38-14.1Q1237.38-18.5 1239.21-21.78 1241.03-25.05 1244.31-26.8 1247.58-28.55 1251.78-28.55L1251.78-28.55Q1255.98-28.55 1259.26-26.83 1262.53-25.1 1264.36-21.9 1266.18-18.7 1266.18-14.35L1266.18-14.35ZM1248.33-17L1254.93-17Q1254.93-18.4 1254.03-19.13 1253.13-19.85 1251.78-19.85L1251.78-19.85Q1248.83-19.85 1248.33-17L1248.33-17Z" opacity="1" transform="matrix(1,0,0,1,0,0)" fill="#ffffff" class="slogan-text-1" data-fill-palette-color="secondary" id="text-1"></path></svg></g></svg></g></svg></g></svg></g><g><svg viewBox="0 0 94.59782887210166 94.55844118386224" height="94.55844118386224" width="94.59782887210166"><g><svg xmlns="http://www.w3.org/2000/svg" xmlns:xlink="http://www.w3.org/1999/xlink" version="1.1" x="0" y="0" viewBox="4.999999999999995 4.999999999999998 90.00000000000003 89.96252670929331" enable-background="new 0 0 100 100" xml:space="preserve" height="94.55844118386224" width="94.59782887210166" class="icon-icon-0" data-fill-palette-color="accent" id="icon-0"><path d="M81.8 18.2c-17.6-17.6-46-17.6-63.6 0s-17.6 46.1 0 63.6 46 17.6 63.6 0S99.4 35.8 81.8 18.2zM71.3 64.2L50 42.9 28.7 64.2l-7.1-7.1L50 28.7l28.4 28.4L71.3 64.2z" fill="#ffffff" data-fill-palette-color="accent"></path></svg></g></svg></g></svg></g><defs></defs></svg><rect width="395.52" height="72.39228610686149" fill="none" stroke="none" visibility="hidden"></rect></g></svg></g></svg>